<svg width="64" height="64" viewBox="0 0 64 64" fill="none" xmlns="http://www.w3.org/2000/svg">
  <!-- Fond du chatbot -->
  <circle cx="32" cy="32" r="30" fill="#d4af37" stroke="#b8941f" stroke-width="2"/>
  
  <!-- Corps du chatbot -->
  <rect x="16" y="20" width="32" height="24" rx="12" fill="#ffffff" stroke="#b8941f" stroke-width="1"/>
  
  <!-- Antennes -->
  <circle cx="24" cy="18" r="3" fill="#d4af37"/>
  <circle cx="40" cy="18" r="3" fill="#d4af37"/>
  <line x1="24" y1="18" x2="24" y2="22" stroke="#b8941f" stroke-width="2"/>
  <line x1="40" y1="18" x2="40" y2="22" stroke="#b8941f" stroke-width="2"/>
  
  <!-- Yeux -->
  <circle cx="26" cy="28" r="2" fill="#2c2c2c"/>
  <circle cx="38" cy="28" r="2" fill="#2c2c2c"/>
  
  <!-- Reflets dans les yeux -->
  <circle cx="26.5" cy="27.5" r="0.5" fill="#ffffff"/>
  <circle cx="38.5" cy="27.5" r="0.5" fill="#ffffff"/>
  
  <!-- Bouche -->
  <path d="M28 34 Q32 36 36 34" stroke="#2c2c2c" stroke-width="1.5" fill="none" stroke-linecap="round"/>
  
  <!-- Écran du chatbot -->
  <rect x="20" y="24" width="24" height="16" rx="2" fill="#f8f4e6" stroke="#b8941f" stroke-width="0.5"/>
  
  <!-- Texte sur l'écran -->
  <rect x="22" y="26" width="20" height="2" rx="1" fill="#d4af37"/>
  <rect x="22" y="30" width="16" height="2" rx="1" fill="#d4af37"/>
  <rect x="22" y="34" width="18" height="2" rx="1" fill="#d4af37"/>
  
  <!-- Boutons -->
  <circle cx="20" cy="38" r="1.5" fill="#b8941f"/>
  <circle cx="24" cy="38" r="1.5" fill="#b8941f"/>
  <circle cx="28" cy="38" r="1.5" fill="#b8941f"/>
  
  <!-- Ombres -->
  <circle cx="30" cy="34" r="28" fill="none" stroke="rgba(0,0,0,0.1)" stroke-width="1"/>
</svg> 